<svg width="80" height="101" viewBox="0 0 80 101" fill="none" xmlns="http://www.w3.org/2000/svg">
<path d="M40 40.8867L20 12.8867L28 0.886719H52L60 12.8867L40 40.8867ZM57.5 24.8867L51.5 33.3867C62.5 37.8867 70 48.3867 70 60.8867C70 68.8432 66.8393 76.4738 61.2132 82.0999C55.5871 87.726 47.9565 90.8867 40 90.8867C32.0435 90.8867 24.4129 87.726 18.7868 82.0999C13.1607 76.4738 10 68.8432 10 60.8867C10 48.3867 17.5 37.8867 28.5 33.3867L22.5 24.8867C9 31.3867 0 44.8867 0 60.8867C0 71.4954 4.21427 81.6695 11.7157 89.171C19.2172 96.6724 29.3913 100.887 40 100.887C50.6087 100.887 60.7828 96.6724 68.2843 89.171C75.7857 81.6695 80 71.4954 80 60.8867C80 44.8867 71 31.3867 57.5 24.8867Z" fill="white"/>
<path d="M20 12.8867L40 40.8867L60 12.8867L52 0.886719H28L20 12.8867Z" fill="#BC6C25"/>
</svg>
