<svg width="24" height="24" viewBox="0 0 24 24" fill="none" xmlns="http://www.w3.org/2000/svg">
<path fill-rule="evenodd" clip-rule="evenodd" d="M8.69925 1.25H15.2992C15.5192 1.25 15.6882 1.25 15.8352 1.266C16.4877 1.33589 17.0936 1.63677 17.5437 2.11431C17.9937 2.59185 18.2581 3.21456 18.2893 3.87C18.9035 4.05477 19.4386 4.43888 19.8102 4.96169C20.1818 5.48449 20.3687 6.11618 20.3412 6.757C20.7392 6.937 21.0913 7.185 21.3943 7.53C22.0103 8.234 22.1983 9.095 22.2063 10.1C22.2133 11.072 22.0492 12.302 21.8442 13.834L21.4303 16.942C21.2703 18.14 21.1413 19.11 20.9403 19.869C20.7303 20.659 20.4223 21.314 19.8433 21.822C19.2633 22.329 18.5732 22.548 17.7622 22.652C16.9822 22.75 16.0052 22.75 14.7962 22.75H9.20125C7.99325 22.75 7.01525 22.75 6.23625 22.651C5.42525 22.548 4.73525 22.329 4.15625 21.821C3.57625 21.314 3.26725 20.659 3.05825 19.869C2.85725 19.109 2.72825 18.14 2.56825 16.942L2.15325 13.834C1.94925 12.302 1.78525 11.072 1.79325 10.101C1.79925 9.095 1.98825 8.234 2.60425 7.53C2.89476 7.19872 3.25414 6.9349 3.65725 6.757C3.62984 6.11618 3.81668 5.48449 4.18828 4.96169C4.55987 4.43888 5.09503 4.05477 5.70925 3.87C5.74035 3.21456 6.0048 2.59185 6.45483 2.11431C6.90486 1.63677 7.51081 1.33589 8.16325 1.266C8.31025 1.25 8.47925 1.25 8.69925 1.25ZM7.23025 3.75H16.7662C16.7132 3.49001 16.5788 3.25364 16.3825 3.07512C16.1861 2.8966 15.9381 2.78518 15.6742 2.757C15.5354 2.74878 15.3963 2.74644 15.2572 2.75H8.73925C8.45925 2.75 8.37825 2.751 8.32225 2.757C8.0584 2.78518 7.81036 2.8966 7.61404 3.07512C7.41772 3.25364 7.2833 3.49001 7.23025 3.75ZM5.18025 6.367C6.12225 6.25 7.31925 6.25 8.79325 6.25H15.2052C16.6792 6.25 17.8753 6.25 18.8183 6.367C18.7566 6.05239 18.5875 5.76897 18.34 5.56522C18.0925 5.36147 17.7818 5.25004 17.4612 5.25H6.53725C5.85425 5.25 5.30225 5.74 5.18025 6.367ZM5.25425 7.871C4.43025 7.987 4.01325 8.198 3.73325 8.518C3.45325 8.838 3.29825 9.278 3.29325 10.111C3.28625 10.965 3.43425 12.09 3.64825 13.694L3.70525 14.119L4.12625 13.814C5.21425 13.026 6.82025 13.065 7.85525 13.921L11.6932 17.098C12.0562 17.398 12.6812 17.454 13.1322 17.192L13.3992 17.037C14.6752 16.294 16.3852 16.373 17.5632 17.25L19.6403 18.798C19.7597 18.0991 19.8631 17.3976 19.9503 16.694L20.3503 13.694C20.5643 12.09 20.7123 10.965 20.7063 10.111C20.7003 9.279 20.5463 8.838 20.2663 8.518C19.9863 8.198 19.5683 7.987 18.7443 7.871C17.8983 7.751 16.7642 7.75 15.1462 7.75H8.85225C7.23425 7.75 6.09925 7.753 5.25425 7.871ZM19.1672 20.314L16.6672 18.452C15.9842 17.943 14.9242 17.884 14.1532 18.332L13.8862 18.488C12.9142 19.053 11.6032 18.97 10.7362 18.253L6.89925 15.077C6.40125 14.665 5.55025 14.636 5.00725 15.029L3.93125 15.809L4.04925 16.694C4.21725 17.954 4.33525 18.828 4.50925 19.484C4.67725 20.121 4.87525 20.457 5.14425 20.693C5.41425 20.928 5.77425 21.08 6.42625 21.163C7.09925 21.249 7.98225 21.25 9.25325 21.25H14.7472C16.0172 21.25 16.9013 21.249 17.5743 21.163C18.2273 21.08 18.5863 20.928 18.8553 20.693C18.9723 20.591 19.0753 20.471 19.1683 20.315M16.4992 10.75C16.3003 10.75 16.1096 10.829 15.9689 10.9697C15.8283 11.1103 15.7492 11.3011 15.7492 11.5C15.7492 11.6989 15.8283 11.8897 15.9689 12.0303C16.1096 12.171 16.3003 12.25 16.4992 12.25C16.6982 12.25 16.8889 12.171 17.0296 12.0303C17.1702 11.8897 17.2492 11.6989 17.2492 11.5C17.2492 11.3011 17.1702 11.1103 17.0296 10.9697C16.8889 10.829 16.6982 10.75 16.4992 10.75ZM14.2492 11.5C14.2492 11.2045 14.3074 10.9119 14.4205 10.639C14.5336 10.366 14.6993 10.1179 14.9083 9.90901C15.1172 9.70008 15.3652 9.53434 15.6382 9.42127C15.9112 9.3082 16.2038 9.25 16.4992 9.25C16.7947 9.25 17.0873 9.3082 17.3603 9.42127C17.6333 9.53434 17.8813 9.70008 18.0902 9.90901C18.2992 10.1179 18.4649 10.366 18.578 10.639C18.6911 10.9119 18.7493 11.2045 18.7493 11.5C18.7493 12.0967 18.5122 12.669 18.0902 13.091C17.6683 13.5129 17.096 13.75 16.4992 13.75C15.9025 13.75 15.3302 13.5129 14.9083 13.091C14.4863 12.669 14.2492 12.0967 14.2492 11.5Z" fill="#DDDDDD"/>
</svg>
