<svg width="100" height="101" viewBox="0 0 100 101" fill="none" xmlns="http://www.w3.org/2000/svg">
<path d="M76.1979 35.7005C74.4837 33.7482 72.722 31.796 70.8649 29.939L69.4841 28.6533L70.1507 28.0819C72.4792 26.0831 74.1386 23.418 74.905 20.4464C75.6713 17.4748 75.5076 14.3397 74.4361 11.464C72.8834 8.22119 70.4249 5.49737 67.3577 3.62154C64.2904 1.74571 60.7457 0.798121 57.1515 0.893237V10.4164C58.8457 10.3928 60.5155 10.8217 61.9886 11.6587C63.4618 12.4957 64.6849 13.7106 65.5319 15.178C66.3414 17.0827 65.532 19.1778 63.294 21.4157C62.9607 21.7966 62.5798 22.0347 62.2464 22.368C47.9617 10.8926 32.296 4.41682 24.6299 12.083C23.8268 12.9039 23.167 13.8535 22.6776 14.8923V15.3685L21.8205 17.8921L0.821882 80.269C0.0276018 82.6196 -0.19521 85.1256 0.171901 87.5795C0.539013 90.0334 1.48548 92.3645 2.93291 94.3797C4.38035 96.3949 6.28709 98.0363 8.49521 99.1679C10.7033 100.299 13.1493 100.889 15.6304 100.887C17.2505 100.871 18.8578 100.598 20.392 100.077L85.7211 78.412C86.524 78.1131 87.2313 77.6031 87.7686 76.9359L88.7685 76.0788C95.5776 69.2221 91.1969 56.0325 82.0547 43.2238C87.4831 40.0557 93.7337 38.5801 100.006 38.986V29.4628C91.6128 29.001 83.2863 31.1826 76.1979 35.7005ZM17.6303 91.0302C16.5495 91.3879 15.3905 91.4383 14.2827 91.1755C13.1749 90.9127 12.1619 90.3473 11.3569 89.5422C10.5518 88.7372 9.98638 87.7242 9.72363 86.6165C9.46087 85.5087 9.51118 84.3497 9.86891 83.2688L16.3447 63.7463C20.9662 72.5595 28.0675 79.8263 36.7719 84.6497L17.6303 91.0302ZM50.9615 79.9357C43.7654 78.0299 37.2009 74.2561 31.9329 68.9965C26.6649 63.7368 22.8806 57.1783 20.9634 49.9853L25.725 35.7005L26.0107 36.129C26.5345 37.1766 27.2011 38.2717 27.8677 39.3669C28.5344 40.4621 28.6296 40.7478 29.1058 41.462C29.5819 42.1763 30.6771 43.7476 31.5342 44.938C32.3913 46.1284 32.4389 46.2712 32.9626 46.9378C33.4864 47.6045 35.0101 49.5567 36.1053 50.8424L37.4862 52.5089C39.1051 54.3659 40.8193 56.1753 42.6287 58.0324C44.4381 59.8894 45.8666 61.0798 47.3903 62.794L48.9616 64.1272L52.6756 67.127L54.4374 68.4603C55.7707 69.4126 57.0563 70.3649 58.3896 71.222L59.8657 72.1743C61.5798 73.2218 63.294 74.2218 64.9606 75.0789H65.1986L50.9615 79.9357ZM81.9594 69.3173H81.6738C78.3883 71.1267 64.7225 66.6032 49.3425 51.1757C47.7236 49.5567 46.1999 47.9854 44.819 46.4141L43.4382 44.7475L40.9145 41.7001L39.5336 39.7955C38.9146 38.8908 38.248 38.0337 37.6766 37.1766L36.4386 35.1767L35.0577 32.9388C34.6768 32.2721 34.3911 31.6531 34.0578 31.0341C33.7245 30.4151 33.3436 29.7961 33.0579 29.1295C32.8025 28.5716 32.5799 27.9992 32.3913 27.4153C32.1532 26.7963 31.8675 26.1773 31.677 25.6059C31.4865 25.0345 31.4389 24.7012 31.2961 24.1298C31.1532 23.5584 31.058 23.0823 30.9628 22.6061C30.939 22.1938 30.939 21.7804 30.9628 21.3681C30.9169 20.9885 30.9169 20.6049 30.9628 20.2253L31.4865 18.7492C33.2007 17.035 42.1049 18.7492 54.0089 27.7962C51.991 28.707 49.8338 29.2704 47.6284 29.4628V38.986C52.6862 38.6951 57.5936 37.1574 61.9131 34.5101L64.1987 36.7004C66.1986 38.7003 68.0556 40.7478 69.8174 42.7953C67.0918 47.7241 66.0865 53.4207 66.9604 58.9847L76.4836 57.1277C76.203 55.3611 76.203 53.5613 76.4836 51.7947C77.9369 53.9984 79.226 56.3061 80.3405 58.699C83.007 64.9843 82.8165 68.5079 81.9594 69.3173Z" fill="white"/>
<path d="M70.2253 28.115L61.9127 34.5101C57.5932 37.1574 52.6858 38.6951 47.6279 38.986V29.4628C49.8334 29.2704 51.9906 28.707 54.0085 27.7962C59.665 25.2433 62.7015 21.8451 63.0348 21.4642C65.2727 19.2263 66.341 17.0827 65.5315 15.178C64.6845 13.7106 63.4614 12.4957 61.9882 11.6587C60.5151 10.8217 58.8453 10.3928 57.1511 10.4164V0.893237C60.7452 0.798121 64.29 1.74571 67.3572 3.62154C70.4245 5.49737 72.8829 8.22119 74.4357 11.464C75.5072 14.3397 75.6708 17.4748 74.9045 20.4464C74.1382 23.418 72.505 25.8569 70.2253 28.115Z" fill="#BC6C25"/>
<path d="M100.005 38.986C93.7333 38.5801 87.8103 39.885 82.201 43.4344C77.0702 46.681 76.1901 55.249 76.4832 57.1277L66.96 58.9847C66.0861 53.4207 67.0913 47.7241 69.817 42.7953C75.5114 31.2439 91.6124 29.001 100.005 29.4628V38.986Z" fill="#BC6C25"/>
</svg>
