<svg width="104" height="105" viewBox="0 0 104 105" fill="none" xmlns="http://www.w3.org/2000/svg">
<path d="M52 102.887C79.6142 102.887 102 80.501 102 52.8867C102 25.2725 79.6142 2.88672 52 2.88672C24.3858 2.88672 2 25.2725 2 52.8867C2 80.501 24.3858 102.887 52 102.887Z" stroke="white" stroke-width="4" stroke-linecap="round" stroke-linejoin="round"/>
<path d="M52.0007 65.6781C59.0648 65.6781 64.7914 59.9515 64.7914 52.8874C64.7914 45.8233 59.0648 40.0967 52.0007 40.0967C44.9366 40.0967 39.21 45.8233 39.21 52.8874C39.21 59.9515 44.9366 65.6781 52.0007 65.6781Z" stroke="white" stroke-width="4" stroke-linecap="round" stroke-linejoin="round"/>
<path d="M53.7442 52.8868C53.7442 53.2317 53.6419 53.569 53.4503 53.8558C53.2586 54.1426 52.9862 54.3662 52.6675 54.4982C52.3488 54.6302 51.9981 54.6647 51.6598 54.5974C51.3214 54.5301 51.0106 54.364 50.7667 54.1201C50.5228 53.8762 50.3567 53.5654 50.2894 53.227C50.2221 52.8887 50.2566 52.538 50.3886 52.2193C50.5206 51.9006 50.7442 51.6282 51.031 51.4365C51.3179 51.2449 51.6551 51.1426 52 51.1426C52.4608 51.1486 52.9009 51.3343 53.2267 51.6601C53.5525 51.9859 53.7382 52.426 53.7442 52.8868Z" fill="#BC6C25"/>
<path d="M52 14.5146C41.8231 14.5146 32.063 18.5574 24.8669 25.7536C17.6707 32.9497 13.6279 42.7098 13.6279 52.8867" stroke="#BC6C25" stroke-width="4" stroke-linecap="round" stroke-linejoin="round"/>
<path d="M52.0003 27.3057C45.2157 27.3057 38.709 30.0008 33.9116 34.7983C29.1141 39.5957 26.4189 46.1025 26.4189 52.8871M52.0003 91.2592C62.1773 91.2592 71.9373 87.2164 79.1335 80.0202C86.3297 72.8241 90.3724 63.064 90.3724 52.8871" stroke="white" stroke-width="4" stroke-linecap="round" stroke-linejoin="round"/>
<path d="M52 78.4681C58.7846 78.4681 65.2913 75.7729 70.0888 70.9755C74.8862 66.1781 77.5814 59.6713 77.5814 52.8867" stroke="#BC6C25" stroke-width="4" stroke-linecap="round" stroke-linejoin="round"/>
</svg>
