<svg width="101" height="38" viewBox="0 0 101 38" fill="none" xmlns="http://www.w3.org/2000/svg">
<path d="M100.521 0.0480528C100.521 12.346 100.521 24.6439 100.511 36.969C100.489 37.0058 100.479 37.0177 100.473 37.032C67.0121 37.032 33.5511 37.032 0.0629896 37.0222C0.0262123 37.0001 0.0142776 36.9908 0 36.9846C0 24.6709 0 12.3571 0.0210336 0.0220173C33.1313 0.000637509 66.2204 0.000642294 99.3096 0.000419822C99.4122 0.00041911 99.5149 -0.00288498 99.632 0.0090569C99.9379 0.031191 100.229 0.0396219 100.521 0.0480528ZM32.2445 31.4077C32.2436 31.4002 32.2448 31.3918 32.2417 31.3855C27.871 22.6451 23.5 13.9049 19.129 5.16478C18.9314 4.7696 18.7332 4.37469 18.5146 3.93844C13.3904 14.1868 8.28779 24.3921 3.17885 34.61C13.4113 34.61 23.6198 34.61 33.8518 34.61C33.3199 33.5456 32.793 32.4913 32.2445 31.4077ZM92.7208 2.46623C92.5085 2.46623 92.2958 2.47407 92.084 2.4635C91.941 2.45636 91.8618 2.50221 91.7951 2.63586C89.9656 6.30533 88.1303 9.97198 86.298 13.6401C84.4625 17.3147 82.6291 20.9904 80.7939 24.6652C80.764 24.7251 80.7227 24.7793 80.6867 24.8361C80.6901 24.2412 80.7474 23.6687 80.7945 23.0953C80.862 22.2729 80.9211 21.4498 80.9857 20.6271C81.0314 20.0454 81.0815 19.4641 81.1271 18.8824C81.1917 18.0598 81.2533 17.2368 81.3176 16.4141C81.3636 15.8246 81.4125 15.2353 81.4593 14.6458C81.5073 14.0406 81.5541 13.4353 81.6018 12.8301C81.6489 12.2327 81.6968 11.6354 81.7439 11.0381C81.7916 10.4329 81.8386 9.8276 81.8863 9.22239C81.9334 8.62503 81.9818 8.02777 82.0282 7.43037C82.0766 6.80939 82.1262 6.1885 82.1698 5.56718C82.2059 5.05337 82.2291 4.53864 82.2677 4.02504C82.2868 3.77078 82.3361 3.51884 82.3567 3.26464C82.3791 2.98825 82.384 2.71044 82.3971 2.41882C82.306 2.41882 82.2282 2.41882 82.1504 2.41882C80.7597 2.41882 79.3689 2.42383 77.9782 2.41308C77.7839 2.41157 77.6986 2.4798 77.6171 2.64308C72.7577 12.3722 67.8941 22.0992 63.0313 31.8266C62.5864 32.7165 62.1435 33.6075 61.693 34.5114C63.0906 34.5114 64.4688 34.5114 65.8399 34.5114C69.516 27.1593 73.1877 19.8163 76.8594 12.4732C76.9077 12.5313 76.9102 12.5699 76.9073 12.6081C76.8604 13.2285 76.8127 13.8488 76.7653 14.4692C76.7492 14.6789 76.736 14.8888 76.717 15.0981C76.6552 15.7788 76.5892 16.4591 76.529 17.1399C76.4784 17.7132 76.4317 18.2869 76.3868 18.8607C76.3217 19.6913 76.2609 20.5222 76.1961 21.3528C76.1507 21.9344 76.1005 22.5158 76.0546 23.0974C75.9902 23.9122 75.9284 24.7272 75.8644 25.542C75.818 26.1315 75.7657 26.7206 75.7235 27.3104C75.6717 28.0338 75.6277 28.7579 75.5799 29.4816C75.5645 29.715 75.5519 29.9487 75.5311 30.1816C75.4702 30.8623 75.4 31.5423 75.3449 32.2235C75.3034 32.7368 75.2834 33.2518 75.2464 33.7656C75.2276 34.0267 75.1923 34.2867 75.1635 34.5567C76.8598 34.5567 78.557 34.5567 80.2554 34.5567C85.601 23.8654 90.9469 13.1735 96.3005 2.46623C95.1057 2.46623 93.9369 2.46623 92.7208 2.46623ZM56.0685 12.9451C57.8283 9.42536 59.5882 5.90563 61.3539 2.37398C53.284 2.37398 45.2419 2.37398 37.175 2.37398C41.2034 10.4306 45.2257 18.4753 49.2642 26.5521C50.1592 24.7639 51.0312 23.0243 51.9006 21.2835C53.2837 18.5143 54.6649 15.7442 56.0685 12.9451ZM58.0127 30.299C52.1816 30.299 46.3505 30.298 40.5194 30.3041C40.339 30.3043 40.2469 30.253 40.1684 30.0946C38.5878 26.9019 37.0069 23.7092 35.4169 20.5211C33.409 16.4951 31.3931 12.4731 29.3804 8.44958C28.3831 6.45607 27.385 4.46297 26.3928 2.48071C24.4651 2.48071 22.55 2.48071 20.6169 2.48071C20.6456 2.54663 20.6644 2.59586 20.6879 2.64275C25.9704 13.2056 31.2536 23.7681 36.5322 34.333C36.6056 34.4799 36.6861 34.5245 36.845 34.5226C38.6271 34.5011 40.4093 34.4881 42.1915 34.4714C43.7683 34.4566 45.345 34.4393 46.9218 34.4243C48.6645 34.4078 50.4072 34.3911 52.1499 34.3771C54.3272 34.3597 56.5045 34.3451 58.6819 34.3291C58.7132 34.3288 58.7445 34.3254 58.7748 34.3236C59.4437 32.9848 60.1109 31.6494 60.7856 30.299C59.8603 30.299 58.9602 30.299 58.0127 30.299ZM98.0662 34.6104C98.0782 34.5361 98.1008 34.4618 98.1008 34.3875C98.1024 24.4484 98.1024 14.5093 98.1018 4.57024C98.1018 4.50718 98.0936 4.44412 98.0892 4.38106C98.0757 4.37933 98.0621 4.3776 98.0485 4.37587C93.0123 14.4482 87.9761 24.5206 82.9296 34.6135C87.9766 34.6135 92.9985 34.6135 98.0662 34.6104ZM8.98508 17.5444C11.5095 12.4955 14.034 7.44659 16.5628 2.38891C11.8299 2.38891 7.12607 2.38891 2.43774 2.38891C2.43774 11.7918 2.43774 21.1771 2.43774 30.6046C2.47951 30.541 2.49879 30.5172 2.51219 30.4904C3.28055 28.9552 4.04926 27.4202 4.81616 25.8843C6.19921 23.1145 7.58114 20.344 8.98508 17.5444ZM32.0291 2.46623C31.2713 2.46623 30.5135 2.46623 29.7371 2.46623C33.9647 10.9429 38.1865 19.4081 42.4099 27.8764C44.0071 27.8764 45.6027 27.8764 47.2113 27.8764C47.1808 27.8036 47.1558 27.7326 47.1224 27.6658C42.9525 19.3238 38.7816 10.9822 34.6144 2.63879C34.5486 2.50698 34.4728 2.46178 34.3283 2.46308C33.5777 2.46986 32.8271 2.46624 32.0291 2.46623ZM64.5575 2.46623C64.4552 2.46623 64.3514 2.47715 64.2509 2.46385C64.0692 2.43983 63.9849 2.51127 63.9007 2.67996C60.0432 10.4065 56.1784 18.1295 52.3149 25.8531C51.9797 26.5232 51.6472 27.1947 51.3058 27.8809C52.458 27.8809 53.5867 27.8763 54.7153 27.8854C54.8974 27.8869 54.9811 27.8335 55.0646 27.6663C58.9224 19.9399 62.7871 12.2169 66.6506 4.49335C66.9859 3.82325 67.3181 3.15169 67.659 2.46623C66.6252 2.46623 65.6148 2.46623 64.5575 2.46623ZM72.1898 2.46623C71.8217 2.46623 71.4536 2.46623 71.0992 2.46623C66.8599 10.9451 62.632 19.4009 58.3922 27.8808C59.5546 27.8808 60.6764 27.8844 61.798 27.8727C61.8724 27.8719 61.9749 27.7687 62.0151 27.6884C65.8821 19.9647 69.7442 12.2386 73.6068 4.51266C73.9454 3.8354 74.2847 3.15852 74.6313 2.46623C73.8162 2.46623 73.0267 2.46623 72.1898 2.46623ZM89.0441 2.72041C89.0931 2.61116 89.142 2.50191 89.1932 2.38771C87.726 2.38771 86.278 2.38771 84.8404 2.38771C84.8028 2.72872 84.7602 3.05203 84.7328 3.37663C84.6803 3.99692 84.6371 4.61799 84.5888 5.23864C84.5423 5.83573 84.4939 6.43266 84.4469 7.02971C84.3834 7.83624 84.3171 8.64257 84.2583 9.44946C84.2204 9.97075 84.1988 10.4932 84.1601 11.0145C84.1412 11.2686 84.0916 11.5204 84.0707 11.7744C84.0472 12.0615 84.0403 12.3499 84.0261 12.6377C84.0416 12.6416 84.0571 12.6455 84.0726 12.6495C85.7226 9.34977 87.3727 6.05007 89.0441 2.72041ZM73.2567 28.0072C73.3508 26.8821 73.445 25.7571 73.5391 24.632C73.5231 24.6264 73.5071 24.6208 73.4911 24.6152C71.8294 27.9386 70.1676 31.2619 68.4959 34.6052C69.9232 34.6052 71.3181 34.6052 72.7239 34.6052C72.7437 34.5149 72.7725 34.4275 72.7809 34.3382C72.8163 33.9589 72.8496 33.5794 72.8763 33.1995C72.9268 32.4842 72.9722 31.7685 73.0196 31.053C73.0356 30.8119 73.0485 30.5705 73.068 30.3297C73.1296 29.5704 73.1936 28.8113 73.2567 28.0072Z" fill="#BC6C25"/>
</svg>
