<svg width="106" height="85" viewBox="0 0 106 85" fill="none" xmlns="http://www.w3.org/2000/svg">
<path d="M10.6042 84.7334C7.70849 84.7334 5.23042 83.7032 3.17005 81.6428C1.10967 79.5825 0.0777288 77.1026 0.0742188 74.2034V11.0232C0.0742188 8.12743 1.10616 5.64937 3.17005 3.58899C5.23393 1.52862 7.712 0.496674 10.6042 0.493164H94.8445C97.7402 0.493164 100.22 1.52511 102.284 3.58899C104.348 5.65288 105.378 8.13094 105.375 11.0232V74.2034C105.375 77.0991 104.344 79.5789 102.284 81.6428C100.224 83.7067 97.7437 84.7369 94.8445 84.7334H10.6042ZM52.7244 47.8783L94.8445 21.5532V11.0232L52.7244 37.3483L10.6042 11.0232V21.5532L52.7244 47.8783Z" fill="#BC6C25"/>
</svg>
