<svg width="82" height="82" viewBox="0 0 82 82" fill="none" xmlns="http://www.w3.org/2000/svg">
<path d="M16.3367 35.789C22.8166 48.5238 33.2565 58.9187 45.9913 65.4436L55.8912 55.5437C57.1062 54.3287 58.9062 53.9237 60.4811 54.4637C65.5211 56.1287 70.966 57.0287 76.546 57.0287C79.0209 57.0287 81.0459 59.0537 81.0459 61.5286V77.2335C81.0459 79.7084 79.0209 81.7334 76.546 81.7334C34.2915 81.7334 0.046875 47.4888 0.046875 5.23432C0.046875 2.75935 2.07185 0.734375 4.54682 0.734375H20.2966C22.7716 0.734375 24.7966 2.75935 24.7966 5.23432C24.7966 10.8593 25.6966 16.2592 27.3615 21.2991C27.8565 22.8741 27.4965 24.6291 26.2366 25.8891L16.3367 35.789Z" fill="#BC6C25"/>
</svg>
