<svg width="344" height="415" viewBox="0 0 344 415" fill="none" xmlns="http://www.w3.org/2000/svg">
<g clip-path="url(#clip0_479_9)" filter="url(#filter0_d_479_9)">
<path d="M140.247 388.693C137.831 388.212 135.415 387.731 132.832 387.128C129.859 385.868 126.988 384.864 124.261 383.562C120.042 381.547 116.777 378.275 113.477 375.061C109.842 371.523 106.057 368.151 103.227 363.865C100.854 360.272 98.2252 356.846 95.7245 353.336C92.6915 349.079 89.5111 344.913 86.696 340.518C83.8943 336.144 81.3668 331.588 78.9004 327.016C75.9992 321.638 72.3892 316.598 70.8687 310.541C70.1548 307.697 68.907 304.963 68.4021 302.094C67.7341 298.298 67.5348 294.421 67.1736 290.575C65.9587 277.639 64.8207 264.695 63.5175 251.768C63.1729 248.35 62.3584 244.976 61.712 241.59C61.6024 241.016 61.5483 240.235 60.4981 240.497C56.4254 241.512 53.508 239.75 51.2037 236.578C48.9401 233.461 47.7743 229.914 46.9404 226.213C45.3175 219.01 45.1465 211.718 45.3495 204.393C45.4721 199.971 45.5374 195.547 45.6661 191.125C45.7236 189.151 45.5967 187.112 46.063 185.229C46.4971 183.476 47.5413 181.87 47.5862 180.01C49.0461 182.176 50.5441 184.253 52.707 185.625C56.4702 188.013 60.3337 190.245 64.1721 192.515C64.8732 192.929 65.6234 193.364 66.4052 193.523C69.7687 194.21 72.1063 195.972 73.09 199.339C73.1818 199.653 73.6031 199.874 73.9374 200.203C74.6599 197.795 75.1649 195.643 75.9507 193.598C77.2562 190.201 78.6798 186.845 80.1729 183.525C81.2331 181.167 82.3971 178.859 84.7303 177.367C85.8143 176.674 86.506 176.921 87.1472 177.84C87.6972 178.628 88.195 179.451 88.7325 180.248C90.0942 182.266 90.0975 182.263 88.0778 183.717C87.9812 183.787 87.9078 183.888 87.8098 183.988C88.2056 184.644 88.5857 185.276 88.9676 185.907C89.6142 186.975 89.8636 188.515 91.7109 188.16C91.8459 188.135 92.0116 188.339 92.1766 188.377C93.2411 188.619 94.3112 188.836 95.3755 189.078C95.8921 189.196 96.5148 189.21 96.894 189.513C100.057 192.037 103.151 194.647 106.327 197.154C106.938 197.636 107.842 198.074 108.572 198.022C110.523 197.882 112.453 197.465 114.391 197.158C113.508 196.457 112.604 195.838 111.623 195.671C108.303 195.107 105.622 193.418 103.194 191.244C102.14 190.299 101.18 189.251 100.069 188.142C100.553 188.051 100.804 187.979 101.059 187.961C107.678 187.491 113.856 188.952 119.619 192.213C121.928 193.519 124.253 194.815 126.925 195.198C128.824 195.471 130.331 196.062 130.384 198.353C132.409 197.861 134.255 197.956 135.997 198.871C137.711 199.771 139.496 199.98 141.285 199.274C141.886 199.037 142.702 198.426 142.74 197.931C142.787 197.323 142.228 196.563 141.742 196.042C141.102 195.357 140.267 194.854 139.536 194.248C137.977 192.953 136.585 191.289 134.314 191.382C133.277 191.424 132.904 190.844 132.388 190.191C131.818 189.468 131.23 188.596 130.443 188.231C123.564 185.044 117.16 180.835 109.863 178.564C105.294 177.142 100.639 176.703 96.0099 178.401C94.5514 178.936 94.0012 178.706 93.4371 177.215C92.857 175.682 92.2828 174.146 91.7179 172.608C89.929 167.735 88.8715 162.718 90.4921 157.676C91.6109 154.195 93.0304 150.862 93.3725 147.14C93.7875 142.626 95.8483 138.533 97.2508 134.275C97.7788 132.672 98.5456 131.252 99.8777 130.08C100.495 129.537 100.803 128.466 100.924 127.588C101.167 125.826 101.845 124.583 103.554 123.758C105.2 122.964 106.938 122.057 108.153 120.756C110.096 118.675 112.247 117.13 114.91 116.119C116.376 115.563 117.706 114.636 119.054 113.808C120.082 113.177 121.004 112.408 122.362 112.605C123.042 112.703 123.759 112.606 124.453 112.538C128.666 112.119 132.837 111.955 136.67 114.264C136.87 114.385 137.194 114.423 137.423 114.361C138.945 113.95 140.589 113.744 141.945 113.017C145.455 111.135 146.912 111.096 150.065 113.541C151.405 114.581 152.921 115.076 154.543 115.121C155.174 115.139 156.023 114.718 156.388 114.219C156.636 113.881 156.273 113.039 156.072 112.46C155.905 111.981 155.522 111.577 155.342 111.1C155.242 110.835 155.245 110.366 155.412 110.211C155.616 110.022 156.054 109.979 156.364 110.032C156.688 110.088 157.069 110.26 157.271 110.505C158.715 112.26 160.665 112.634 162.785 112.628C163.126 112.627 163.477 112.751 163.808 112.864C166.278 113.707 168.372 115.149 170.386 116.778C171.538 117.71 172.856 118.51 174.219 119.089C175.21 119.51 175.928 118.693 175.828 117.587C175.707 116.248 175.611 114.907 175.482 113.273C176.121 113.485 176.735 113.499 177.003 113.809C178.387 115.41 179.898 116.962 180.959 118.765C182.618 121.585 184.237 122.078 186.8 121.082C187.84 120.678 188.589 120.903 189.438 121.519C189.913 121.863 190.608 121.908 191.203 122.089C191.343 121.524 191.64 120.947 191.595 120.397C191.437 118.493 191.239 116.611 191.852 114.739C192.195 113.693 193.079 113.337 193.751 114.222C194.38 115.05 194.757 116.11 195.067 117.121C195.416 118.262 195.482 119.486 195.818 120.631C196.532 123.069 196.571 123.057 198.876 121.788C198.937 121.755 199.041 121.797 199.374 121.825C199.501 122.075 199.697 122.463 199.894 122.85C200.358 123.762 201.093 123.936 201.977 123.551C202.842 123.175 203.517 122.546 203.225 121.546C202.571 119.312 201.757 117.122 201.114 114.885C200.986 114.439 201.326 113.862 201.451 113.345C201.947 113.539 202.682 113.595 202.893 113.954C203.458 114.913 203.875 115.979 204.209 117.046C204.675 118.54 205.378 119.643 207.048 120.106C208.252 120.44 209.1 121.38 209.429 122.664C209.525 123.042 209.553 123.538 209.807 123.752C210.236 124.114 210.804 124.411 211.348 124.491C211.55 124.521 211.923 123.895 212.096 123.514C213.006 121.512 213.833 119.471 214.792 117.493C215.055 116.949 215.675 116.576 216.28 115.978C216.574 116.793 216.71 117.291 216.929 117.749C217.174 118.258 217.597 118.702 217.753 119.229C217.916 119.779 218.036 120.457 217.857 120.968C217.293 122.575 217.471 123.47 219.077 124.065C220.985 124.772 223.025 125.118 224.959 125.765C228.019 126.789 231.115 127.778 233.278 130.437C233.596 130.829 234.234 131.052 234.764 131.171C236.524 131.564 237.766 132.605 238.53 134.151C240.525 138.193 242.376 142.306 244.437 146.314C245.591 148.557 246.235 150.585 244.336 152.76C243.981 153.165 244.092 154.153 244.296 154.773C244.383 155.04 245.451 155.324 245.731 155.125C246.252 154.755 246.681 154.083 246.86 153.454C247.106 152.592 247.021 151.641 247.19 150.75C247.397 149.667 247.834 149.545 248.701 150.267C249.069 150.573 249.333 151.018 249.726 151.276C250.204 151.589 250.776 151.986 251.294 151.97C252.636 151.929 253.423 152.573 253.978 153.658C254.391 154.467 254.762 155.296 255.183 156.1C256.652 158.909 257.426 161.753 256.536 164.974C256.161 166.33 256.376 167.901 256.558 169.346C256.943 172.424 257.457 175.487 257.992 178.544C258.053 178.896 258.544 179.211 258.893 179.466C259.186 179.681 259.735 179.693 259.875 179.952C260.879 181.81 261.912 183.788 261.369 185.911C260.785 188.195 259.778 190.375 258.913 192.584C258.586 193.42 258.369 194.188 259.254 195.083C259.85 194.219 260.379 193.45 260.909 192.682C261.074 192.736 261.238 192.79 261.403 192.844C261.266 193.533 261.19 194.24 260.981 194.906C260.041 197.909 258.548 200.62 255.412 201.704C253.199 202.469 251.434 203.627 249.959 205.352C248.452 207.116 248.166 207.138 246.381 205.691C246.183 205.531 246.014 205.334 245.818 205.171C244.45 204.033 242.996 203.179 241.114 203.096C236.393 202.888 231.672 202.643 226.959 202.293C221.711 201.904 216.486 201.557 211.231 202.298C209.494 202.543 207.671 202.243 205.89 202.141C204.933 202.086 203.981 201.826 203.029 201.837C202.128 201.848 201.128 201.934 200.762 203.019C200.422 204.028 200.966 205.496 201.949 206.122C202.38 206.396 202.896 206.588 203.399 206.696C209.44 207.986 215.479 209.294 221.541 210.481C222.395 210.649 223.653 210.5 224.228 209.969C225.259 209.017 226.157 209.245 227.2 209.609C230.095 210.617 232.986 211.635 235.882 212.641C237.536 213.215 239.243 213.668 240.844 214.364C243.166 215.373 243.612 217.128 242.238 219.237C242.049 219.527 241.752 219.764 241.623 220.074C241.361 220.705 241.179 221.369 240.964 222.02C241.116 222.089 241.268 222.157 241.419 222.226C242.192 221.255 242.959 220.28 243.737 219.313C244.769 218.031 246.242 217.861 247.374 218.882C248.204 219.632 248.118 220.929 246.98 221.966C241.652 226.816 236.065 231.334 229.747 234.896C229.417 235.083 229.157 235.48 228.982 235.836C228.237 237.352 227.323 238.713 225.608 239.237C224.332 239.627 222.998 239.835 221.716 240.212C219.671 240.813 217.642 240.986 215.517 240.57C213.998 240.272 212.441 240.355 211.116 241.447C221.565 243.315 231.681 240.801 242.172 238.921C242.003 239.768 241.972 240.321 241.781 240.813C241.094 242.583 240.301 244.313 239.65 246.095C239.116 247.555 238.691 249.067 239.333 250.876C240.46 248.212 241.394 245.75 242.533 243.385C243.648 241.072 244.771 238.73 246.668 236.834C246.052 245.668 243.583 254.342 245.647 263.244C246.056 262.449 246.334 261.623 246.366 260.787C246.487 257.631 246.287 254.443 246.652 251.32C247.31 245.696 249.026 240.319 251.118 235.057C252.551 231.455 254.549 230.069 258.428 230.21C261.909 230.337 263.358 232.991 261.659 235.996C261.07 237.04 260.506 238.183 260.319 239.344C260.103 240.688 260.41 242.108 260.321 243.483C260.132 246.387 259.506 249.116 257.081 251.135C256.38 251.719 255.806 252.566 255.44 253.408C254.685 255.149 254.08 256.958 253.503 258.768C253.444 258.95 253.97 259.535 254.274 259.577C255.524 259.751 256.793 259.836 258.056 259.854C258.631 259.863 259.255 259.739 259.777 259.503C261.287 258.821 262.751 258.042 264.242 257.319C266.597 256.178 268.953 255.039 271.321 253.926C272.764 253.248 274.231 252.621 275.659 252.082C275.198 253.911 274.788 255.635 274.325 257.345C273.841 259.131 273.493 260.984 272.759 262.667C270.484 267.886 267.17 272.491 263.393 276.702C261.309 279.024 258.747 280.958 256.242 282.864C254.255 284.375 253.228 284.064 251.83 282.076C251.663 281.838 251.453 281.631 251.161 281.293C250.83 281.705 250.464 281.991 250.329 282.36C249.812 283.773 249.307 285.196 248.912 286.646C247.788 290.77 246.671 294.896 245.644 299.045C244.538 303.513 242.537 307.597 240.427 311.646C237.385 317.48 234.295 323.29 231.346 329.17C228.421 335.001 225.095 340.597 221.076 345.72C217.027 350.882 211.839 354.924 206.493 358.69C203.808 360.582 200.801 362.021 197.98 363.729C194.406 365.893 190.878 368.132 187.32 370.323C182.728 373.152 178.159 376.02 173.518 378.768C169.976 380.865 166.415 382.956 162.724 384.774C157.417 387.387 151.731 388.696 145.774 388.734C143.932 388.746 142.09 388.708 140.247 388.693ZM55.3314 236.032C57.716 236.457 59.8882 235.285 60.2922 233.357C60.8638 230.629 59.9733 228.539 58.0067 227.993C55.2521 227.228 52.9846 228.223 52.253 230.518C51.4999 232.881 52.6698 235.118 55.3314 236.032ZM255.038 270.068C254.124 272.17 254.404 273.982 255.848 275.318C257.19 276.559 259.184 276.813 260.845 275.953C262.476 275.109 263.326 273.322 262.981 271.337C262.724 269.856 261.889 268.736 260.432 268.3C257.909 267.544 256.612 267.987 255.038 270.068Z" fill="#CC9C92"/>
<path d="M275.687 251.972C274.231 252.621 272.764 253.248 271.322 253.926C268.953 255.039 266.598 256.179 264.243 257.32C262.751 258.042 261.287 258.822 259.777 259.504C259.255 259.74 258.632 259.863 258.057 259.855C256.794 259.836 255.525 259.752 254.274 259.577C253.97 259.535 253.445 258.951 253.503 258.768C254.081 256.959 254.686 255.15 255.441 253.408C255.806 252.567 256.38 251.719 257.081 251.135C259.506 249.117 260.133 246.388 260.321 243.484C260.411 242.108 260.104 240.689 260.32 239.345C260.507 238.184 261.07 237.04 261.66 235.996C263.359 232.991 261.909 230.337 258.429 230.21C254.549 230.069 252.551 231.455 251.119 235.057C249.027 240.319 247.311 245.696 246.653 251.32C246.288 254.444 246.488 257.631 246.367 260.788C246.335 261.623 246.056 262.449 245.647 263.244C243.584 254.343 246.053 245.669 246.669 236.835C244.771 238.73 243.649 241.072 242.534 243.386C241.395 245.75 240.461 248.213 239.334 250.877C238.691 249.067 239.117 247.556 239.651 246.095C240.302 244.313 241.095 242.583 241.781 240.813C241.972 240.321 242.004 239.768 242.172 238.921C231.681 240.801 221.566 243.315 211.117 241.447C212.442 240.356 213.998 240.273 215.517 240.57C217.643 240.986 219.672 240.814 221.717 240.213C222.999 239.836 224.332 239.627 225.609 239.237C227.324 238.713 228.238 237.352 228.983 235.837C229.158 235.481 229.417 235.083 229.748 234.897C236.065 231.334 241.652 226.816 246.98 221.966C248.119 220.93 248.205 219.632 247.374 218.883C246.243 217.861 244.769 218.032 243.737 219.314C242.959 220.28 242.192 221.255 241.42 222.226C241.268 222.158 241.117 222.089 240.965 222.021C241.18 221.37 241.362 220.705 241.624 220.074C241.753 219.764 242.05 219.527 242.239 219.237C243.613 217.128 243.166 215.373 240.845 214.364C239.244 213.669 237.537 213.216 235.882 212.641C232.987 211.635 230.096 210.617 227.201 209.609C226.157 209.246 225.259 209.018 224.229 209.969C223.654 210.5 222.396 210.649 221.542 210.482C215.48 209.294 209.441 207.987 203.4 206.696C202.896 206.589 202.381 206.396 201.949 206.122C200.966 205.497 200.422 204.029 200.763 203.02C201.129 201.934 202.128 201.848 203.03 201.837C203.982 201.826 204.934 202.086 205.89 202.141C207.672 202.243 209.494 202.543 211.232 202.298C216.487 201.558 221.712 201.904 226.96 202.293C231.672 202.643 236.394 202.888 241.115 203.096C242.997 203.179 244.451 204.033 245.818 205.171C246.015 205.334 246.183 205.531 246.381 205.692C248.166 207.139 248.453 207.116 249.96 205.353C251.434 203.628 253.199 202.469 255.412 201.704C258.549 200.62 260.042 197.909 260.982 194.907C261.191 194.24 261.267 193.533 261.404 192.845C261.239 192.791 261.074 192.736 260.91 192.682C260.38 193.451 259.851 194.219 259.255 195.083C258.37 194.188 258.586 193.421 258.914 192.584C259.778 190.375 260.786 188.196 261.37 185.911C261.913 183.788 260.88 181.811 259.876 179.952C259.736 179.693 259.187 179.682 258.893 179.467C258.545 179.211 258.054 178.896 257.992 178.545C257.458 175.488 256.944 172.424 256.558 169.347C256.377 167.901 256.161 166.33 256.536 164.974C257.427 161.753 256.653 158.909 255.183 156.101C254.763 155.297 254.391 154.467 253.978 153.659C253.424 152.573 252.637 151.93 251.295 151.97C250.776 151.986 250.204 151.589 249.726 151.276C249.333 151.018 249.07 150.574 248.702 150.267C247.834 149.545 247.397 149.668 247.191 150.75C247.021 151.642 247.106 152.592 246.861 153.455C246.682 154.083 246.253 154.756 245.731 155.126C245.452 155.324 244.384 155.04 244.297 154.774C244.093 154.153 243.982 153.166 244.337 152.76C246.236 150.586 245.592 148.558 244.438 146.314C242.377 142.306 240.526 138.193 238.53 134.152C237.767 132.605 236.524 131.564 234.765 131.171C234.234 131.053 233.597 130.829 233.278 130.438C231.116 127.779 228.02 126.79 224.96 125.765C223.026 125.118 220.986 124.772 219.078 124.065C217.472 123.47 217.294 122.576 217.857 120.968C218.037 120.457 217.917 119.779 217.754 119.229C217.598 118.702 217.174 118.259 216.93 117.75C216.71 117.291 216.574 116.794 216.281 115.979C215.676 116.577 215.056 116.95 214.792 117.494C213.833 119.471 213.007 121.512 212.097 123.514C211.923 123.895 211.55 124.521 211.349 124.492C210.804 124.411 210.237 124.115 209.808 123.753C209.554 123.538 209.526 123.042 209.429 122.665C209.1 121.381 208.252 120.44 207.049 120.107C205.378 119.644 204.676 118.541 204.209 117.047C203.876 115.98 203.458 114.914 202.893 113.954C202.682 113.596 201.947 113.539 201.451 113.345C201.327 113.862 200.986 114.439 201.115 114.885C201.758 117.122 202.572 119.312 203.226 121.547C203.518 122.546 202.843 123.175 201.978 123.552C201.094 123.936 200.359 123.762 199.895 122.85C199.698 122.463 199.502 122.076 199.375 121.825C199.042 121.798 198.938 121.755 198.876 121.789C196.571 123.057 196.533 123.069 195.819 120.632C195.483 119.486 195.416 118.262 195.067 117.121C194.758 116.11 194.38 115.05 193.751 114.222C193.08 113.337 192.196 113.693 191.853 114.739C191.24 116.612 191.437 118.494 191.595 120.398C191.641 120.948 191.344 121.525 191.204 122.089C190.608 121.909 189.914 121.863 189.439 121.519C188.59 120.903 187.841 120.678 186.8 121.083C184.238 122.079 182.619 121.586 180.959 118.765C179.898 116.962 178.387 115.41 177.003 113.809C176.736 113.5 176.121 113.485 175.482 113.273C175.612 114.907 175.707 116.248 175.828 117.587C175.928 118.694 175.211 119.511 174.22 119.09C172.856 118.51 171.538 117.71 170.387 116.779C168.372 115.149 166.279 113.707 163.808 112.864C163.478 112.751 163.127 112.627 162.786 112.628C160.666 112.635 158.716 112.261 157.272 110.506C157.07 110.26 156.688 110.088 156.364 110.033C156.055 109.98 155.616 110.022 155.413 110.212C155.246 110.367 155.243 110.836 155.343 111.101C155.523 111.578 155.906 111.981 156.072 112.461C156.273 113.04 156.636 113.882 156.389 114.219C156.023 114.718 155.175 115.139 154.544 115.121C152.922 115.077 151.406 114.582 150.065 113.542C146.912 111.096 145.455 111.135 141.946 113.017C140.59 113.744 138.945 113.95 137.423 114.361C137.195 114.423 136.871 114.386 136.67 114.265C132.837 111.956 128.666 112.12 124.453 112.538C123.76 112.607 123.043 112.704 122.363 112.605C121.005 112.408 120.082 113.178 119.054 113.809C117.706 114.637 116.376 115.563 114.911 116.119C112.247 117.13 110.097 118.675 108.153 120.756C106.938 122.057 105.2 122.964 103.554 123.759C101.846 124.583 101.168 125.827 100.925 127.589C100.804 128.466 100.496 129.537 99.8784 130.08C98.5463 131.252 97.7794 132.672 97.2515 134.275C95.8489 138.533 93.7882 142.626 93.3732 147.14C93.031 150.862 91.6115 154.196 90.4928 157.676C88.8722 162.719 89.9297 167.735 91.7186 172.608C92.2835 174.147 92.8577 175.682 93.4378 177.216C94.0019 178.706 94.5521 178.936 96.0106 178.401C100.64 176.704 105.294 177.142 109.864 178.565C117.16 180.836 123.565 185.045 130.443 188.232C131.231 188.597 131.819 189.469 132.389 190.191C132.904 190.845 133.278 191.425 134.315 191.382C136.586 191.29 137.978 192.954 139.537 194.248C140.267 194.855 141.103 195.357 141.742 196.043C142.228 196.564 142.788 197.324 142.741 197.932C142.702 198.426 141.887 199.038 141.286 199.275C139.497 199.98 137.712 199.771 135.998 198.871C134.256 197.957 132.409 197.861 130.385 198.354C130.332 196.062 128.824 195.471 126.926 195.199C124.254 194.815 121.928 193.519 119.62 192.213C113.857 188.952 107.679 187.492 101.059 187.961C100.804 187.979 100.554 188.052 100.07 188.142C101.181 189.251 102.141 190.3 103.195 191.244C105.623 193.419 108.304 195.108 111.624 195.671C112.605 195.838 113.509 196.457 114.392 197.159C112.454 197.466 110.524 197.883 108.573 198.022C107.843 198.074 106.939 197.636 106.328 197.154C103.151 194.647 100.058 192.037 96.8947 189.513C96.5155 189.211 95.8928 189.197 95.3761 189.079C94.3119 188.836 93.2418 188.619 92.1773 188.377C92.0122 188.34 91.8466 188.135 91.7115 188.161C89.8643 188.515 89.6149 186.976 88.9683 185.908C88.5863 185.277 88.2063 184.645 87.8104 183.989C87.9085 183.888 87.9819 183.787 88.0785 183.718C90.0981 182.263 90.0949 182.266 88.7332 180.248C88.1957 179.451 87.6979 178.628 87.1479 177.84C86.5067 176.922 85.815 176.675 84.731 177.368C82.3978 178.859 81.2338 181.167 80.1736 183.525C78.6805 186.845 77.2568 190.201 75.9514 193.598C75.1655 195.643 74.6605 197.795 73.9381 200.203C73.6038 199.874 73.1825 199.654 73.0907 199.339C72.107 195.972 69.7694 194.211 66.4058 193.524C65.624 193.364 64.8739 192.93 64.1728 192.515C60.3344 190.246 56.4709 188.013 52.7076 185.625C50.5448 184.253 49.0467 182.177 47.5179 179.948C46.6641 178.561 45.9379 177.289 45.2537 175.995C45.1024 175.708 45.0615 175.348 45.0349 175.017C44.8468 172.675 44.6488 170.333 44.506 167.988C44.3397 165.255 43.8927 162.561 44.5215 159.78C45.8229 154.023 46.8624 148.207 48.0346 142.421C48.1849 141.679 48.6073 140.979 48.6786 140.238C48.7476 139.521 48.5808 138.761 48.3887 138.054C48.3464 137.899 47.7622 137.834 47.4237 137.819C46.4124 137.774 45.3992 137.775 44.3867 137.757C44.5243 137.066 44.6619 136.375 44.924 135.554C45.1826 135.114 45.2937 134.79 45.4547 134.494C46.6341 132.322 47.952 130.213 48.97 127.969C49.8098 126.118 51.1518 124.735 52.5505 123.383C53.5556 122.411 54.3002 121.38 54.6548 120.01C55.0262 118.575 55.5937 117.191 56.0247 115.77C56.1239 115.443 56.1532 114.96 55.9792 114.709C55.2211 113.616 55.0883 112.503 55.2417 111.183C55.3326 110.401 54.8803 109.42 54.3797 108.74C53.8093 107.965 53.7061 107.273 54.3698 106.552C54.748 106.14 54.9299 105.55 55.1941 105.037C55.3465 104.741 55.4357 104.398 55.641 104.147C56.972 102.52 58.2612 100.851 59.6938 99.3149C60.9619 97.9554 62.3471 96.6908 63.7717 95.4907C66.2909 93.3685 68.8787 91.3263 71.439 89.2521C72.4742 88.4134 72.1396 87.1712 72.4301 86.1055C72.7557 84.9113 73.4368 83.8183 73.8649 82.6456C74.2041 81.7166 74.6522 81.0634 75.715 80.8219C76.2866 80.692 76.8882 80.2869 77.2749 79.8359C79.9584 76.706 82.5749 73.5197 85.2422 70.376C86.6889 68.6709 88.4287 67.1636 89.6253 65.3057C92.6825 60.5587 96.6188 56.6744 101.173 53.4401C104.596 51.0094 108.227 48.8443 111.889 46.7732C116.248 44.3072 120.689 42.0642 125.809 41.3112C130.702 40.5917 135.522 39.398 140.374 38.4131C145.307 37.4118 150.244 36.4264 155.173 35.4053C159.441 34.5212 163.694 33.5685 167.966 32.7025C170.054 32.2791 171.298 30.9162 171.336 28.801C171.391 25.6748 172.887 24.8986 175.7 26.2099C177.47 27.0348 179.442 27.5145 181.373 27.8923C183.528 28.3138 185.766 28.3098 187.918 28.7392C190.115 29.1777 192.281 29.8355 194.404 30.5612C195.41 30.9053 196.701 31.0233 197.079 32.3902C197.325 33.2772 197.581 34.1717 197.948 35.0133C198.52 36.3247 199.507 37.3415 200.987 37.3754C202.432 37.4085 203.531 36.68 203.693 35.0408C204.092 35.1203 204.416 35.124 204.683 35.2475C206.748 36.2011 207.347 36.0947 208.987 34.5093C209.629 33.8895 210.259 33.228 211 32.745C213.693 30.9897 216.688 30.1234 219.91 30.0088C220.648 29.9825 221.387 29.9482 222.125 29.9175C223.852 30.2613 225.58 30.6051 227.45 31.0819C229.235 31.8269 230.945 32.3028 232.505 33.0772C236.636 35.1275 240.745 37.2307 244.782 39.4563C248.97 41.7644 252.951 44.4134 257.514 46.0488C262.815 47.9484 267.15 51.3458 270.957 55.419C272.934 57.5337 274.906 59.6545 276.823 61.822C277.659 62.7668 278.608 63.735 279.064 64.8665C280.638 68.7724 283.329 71.9169 285.857 75.1799C287.258 76.9878 288.876 78.6519 290.104 80.5648C292.124 83.712 293.894 87.0159 295.793 90.2404C298.482 94.806 301.2 99.3541 303.887 103.921C305.053 105.902 305.963 107.973 306.641 110.195C308.019 114.712 309.71 119.136 311.149 123.636C312.033 126.401 312.77 129.219 313.431 132.046C315.157 139.422 316.939 146.791 318.433 154.214C319.294 158.487 319.684 162.855 320.195 167.19C320.378 168.75 320.296 170.339 320.335 171.914C319.722 174.992 319.11 178.07 318.36 181.293C317.579 183.329 317.941 185.618 316.012 187.008C315.957 187.048 315.964 187.17 315.94 187.254C315.637 188.326 315.293 189.388 315.039 190.471C314.298 193.628 313.602 196.796 312.871 199.955C312.346 202.225 311.831 204.499 311.235 206.751C310.965 207.77 310.457 208.724 310.154 209.736C309.71 211.217 309.388 212.733 308.945 214.213C308.769 214.801 308.446 215.356 308.122 215.885C307.773 216.453 307.26 216.931 306.965 217.522C306.007 219.437 305.205 221.434 304.185 223.314C300.247 230.575 295.342 237.148 289.504 243.005C287.615 244.9 285.605 246.762 283.364 248.2C280.982 249.728 278.261 250.736 275.687 251.972Z" fill="#212121"/>
<g filter="url(#filter1_d_479_9)">
<path d="M55.2227 236.01C52.6704 235.118 51.5006 232.881 52.2537 230.518C52.9852 228.223 55.2527 227.228 58.0073 227.993C59.9739 228.539 60.8644 230.629 60.2928 233.357C59.8888 235.285 57.7166 236.457 55.2227 236.01Z" fill="#241716"/>
</g>
<g filter="url(#filter2_d_479_9)">
<path d="M255.094 269.979C256.613 267.988 257.91 267.546 260.433 268.301C261.89 268.737 262.725 269.857 262.982 271.338C263.327 273.323 262.477 275.111 260.846 275.954C259.185 276.814 257.191 276.56 255.849 275.319C254.404 273.983 254.125 272.171 255.094 269.979Z" fill="#241717"/>
</g>
</g>
<defs>
<filter id="filter0_d_479_9" x="-4" y="0" width="351.776" height="422.91" filterUnits="userSpaceOnUse" color-interpolation-filters="sRGB">
<feFlood flood-opacity="0" result="BackgroundImageFix"/>
<feColorMatrix in="SourceAlpha" type="matrix" values="0 0 0 0 0 0 0 0 0 0 0 0 0 0 0 0 0 0 127 0" result="hardAlpha"/>
<feOffset dy="4"/>
<feGaussianBlur stdDeviation="2"/>
<feComposite in2="hardAlpha" operator="out"/>
<feColorMatrix type="matrix" values="0 0 0 0 0 0 0 0 0 0 0 0 0 0 0 0 0 0 0.25 0"/>
<feBlend mode="normal" in2="BackgroundImageFix" result="effect1_dropShadow_479_9"/>
<feBlend mode="normal" in="SourceGraphic" in2="effect1_dropShadow_479_9" result="shape"/>
</filter>
<filter id="filter1_d_479_9" x="48.0283" y="227.738" width="16.4355" height="16.3662" filterUnits="userSpaceOnUse" color-interpolation-filters="sRGB">
<feFlood flood-opacity="0" result="BackgroundImageFix"/>
<feColorMatrix in="SourceAlpha" type="matrix" values="0 0 0 0 0 0 0 0 0 0 0 0 0 0 0 0 0 0 127 0" result="hardAlpha"/>
<feOffset dy="4"/>
<feGaussianBlur stdDeviation="2"/>
<feComposite in2="hardAlpha" operator="out"/>
<feColorMatrix type="matrix" values="0 0 0 0 0 0 0 0 0 0 0 0 0 0 0 0 0 0 0.25 0"/>
<feBlend mode="normal" in2="BackgroundImageFix" result="effect1_dropShadow_479_9"/>
<feBlend mode="normal" in="SourceGraphic" in2="effect1_dropShadow_479_9" result="shape"/>
</filter>
<filter id="filter2_d_479_9" x="250.524" y="267.954" width="16.5332" height="16.5059" filterUnits="userSpaceOnUse" color-interpolation-filters="sRGB">
<feFlood flood-opacity="0" result="BackgroundImageFix"/>
<feColorMatrix in="SourceAlpha" type="matrix" values="0 0 0 0 0 0 0 0 0 0 0 0 0 0 0 0 0 0 127 0" result="hardAlpha"/>
<feOffset dy="4"/>
<feGaussianBlur stdDeviation="2"/>
<feComposite in2="hardAlpha" operator="out"/>
<feColorMatrix type="matrix" values="0 0 0 0 0 0 0 0 0 0 0 0 0 0 0 0 0 0 0.25 0"/>
<feBlend mode="normal" in2="BackgroundImageFix" result="effect1_dropShadow_479_9"/>
<feBlend mode="normal" in="SourceGraphic" in2="effect1_dropShadow_479_9" result="shape"/>
</filter>
<clipPath id="clip0_479_9">
<rect width="277.307" height="367.857" fill="white" transform="translate(71.8037) rotate(11.2561)"/>
</clipPath>
</defs>
</svg>
